<svg aria-hidden="true" style="position: absolute; width: 0; height: 0; overflow: hidden;" version="1.1" xmlns="http://www.w3.org/2000/svg" xmlns:xlink="http://www.w3.org/1999/xlink">
<defs>
<symbol id="icon-file-empty" viewBox="0 0 32 32">
<path d="M28.681 7.159c-0.694-0.947-1.662-2.053-2.724-3.116s-2.169-2.030-3.116-2.724c-1.612-1.182-2.393-1.319-2.841-1.319h-15.5c-1.378 0-2.5 1.121-2.5 2.5v27c0 1.378 1.122 2.5 2.5 2.5h23c1.378 0 2.5-1.122 2.5-2.5v-19.5c0-0.448-0.137-1.23-1.319-2.841zM24.543 5.457c0.959 0.959 1.712 1.825 2.268 2.543h-4.811v-4.811c0.718 0.556 1.584 1.309 2.543 2.268zM28 29.5c0 0.271-0.229 0.5-0.5 0.5h-23c-0.271 0-0.5-0.229-0.5-0.5v-27c0-0.271 0.229-0.5 0.5-0.5 0 0 15.499-0 15.5 0v7c0 0.552 0.448 1 1 1h7v19.5z"></path>
</symbol>
<symbol id="icon-search" viewBox="0 0 32 32">
<path d="M31.008 27.231l-7.58-6.447c-0.784-0.705-1.622-1.029-2.299-0.998 1.789-2.096 2.87-4.815 2.87-7.787 0-6.627-5.373-12-12-12s-12 5.373-12 12 5.373 12 12 12c2.972 0 5.691-1.081 7.787-2.87-0.031 0.677 0.293 1.515 0.998 2.299l6.447 7.58c1.104 1.226 2.907 1.33 4.007 0.23s0.997-2.903-0.23-4.007zM12 20c-4.418 0-8-3.582-8-8s3.582-8 8-8 8 3.582 8 8-3.582 8-8 8z"></path>
</symbol>
<symbol id="icon-cogs" viewBox="0 0 32 32">
<path d="M11.366 22.564l1.291-1.807-1.414-1.414-1.807 1.291c-0.335-0.187-0.694-0.337-1.071-0.444l-0.365-2.19h-2l-0.365 2.19c-0.377 0.107-0.736 0.256-1.071 0.444l-1.807-1.291-1.414 1.414 1.291 1.807c-0.187 0.335-0.337 0.694-0.443 1.071l-2.19 0.365v2l2.19 0.365c0.107 0.377 0.256 0.736 0.444 1.071l-1.291 1.807 1.414 1.414 1.807-1.291c0.335 0.187 0.694 0.337 1.071 0.444l0.365 2.19h2l0.365-2.19c0.377-0.107 0.736-0.256 1.071-0.444l1.807 1.291 1.414-1.414-1.291-1.807c0.187-0.335 0.337-0.694 0.444-1.071l2.19-0.365v-2l-2.19-0.365c-0.107-0.377-0.256-0.736-0.444-1.071zM7 27c-1.105 0-2-0.895-2-2s0.895-2 2-2 2 0.895 2 2-0.895 2-2 2zM32 12v-2l-2.106-0.383c-0.039-0.251-0.088-0.499-0.148-0.743l1.799-1.159-0.765-1.848-2.092 0.452c-0.132-0.216-0.273-0.426-0.422-0.629l1.219-1.761-1.414-1.414-1.761 1.219c-0.203-0.149-0.413-0.29-0.629-0.422l0.452-2.092-1.848-0.765-1.159 1.799c-0.244-0.059-0.492-0.109-0.743-0.148l-0.383-2.106h-2l-0.383 2.106c-0.251 0.039-0.499 0.088-0.743 0.148l-1.159-1.799-1.848 0.765 0.452 2.092c-0.216 0.132-0.426 0.273-0.629 0.422l-1.761-1.219-1.414 1.414 1.219 1.761c-0.149 0.203-0.29 0.413-0.422 0.629l-2.092-0.452-0.765 1.848 1.799 1.159c-0.059 0.244-0.109 0.492-0.148 0.743l-2.106 0.383v2l2.106 0.383c0.039 0.251 0.088 0.499 0.148 0.743l-1.799 1.159 0.765 1.848 2.092-0.452c0.132 0.216 0.273 0.426 0.422 0.629l-1.219 1.761 1.414 1.414 1.761-1.219c0.203 0.149 0.413 0.29 0.629 0.422l-0.452 2.092 1.848 0.765 1.159-1.799c0.244 0.059 0.492 0.109 0.743 0.148l0.383 2.106h2l0.383-2.106c0.251-0.039 0.499-0.088 0.743-0.148l1.159 1.799 1.848-0.765-0.452-2.092c0.216-0.132 0.426-0.273 0.629-0.422l1.761 1.219 1.414-1.414-1.219-1.761c0.149-0.203 0.29-0.413 0.422-0.629l2.092 0.452 0.765-1.848-1.799-1.159c0.059-0.244 0.109-0.492 0.148-0.743l2.106-0.383zM21 15.35c-2.402 0-4.35-1.948-4.35-4.35s1.948-4.35 4.35-4.35 4.35 1.948 4.35 4.35c0 2.402-1.948 4.35-4.35 4.35z"></path>
</symbol>
<symbol id="icon-arrow-down" viewBox="0 0 32 32">
<path d="M16 31l15-15h-9v-16h-12v16h-9z"></path>
</symbol>
<symbol id="icon-arrow-down2" viewBox="0 0 32 32">
<path d="M27.414 19.414l-10 10c-0.781 0.781-2.047 0.781-2.828 0l-10-10c-0.781-0.781-0.781-2.047 0-2.828s2.047-0.781 2.828 0l6.586 6.586v-19.172c0-1.105 0.895-2 2-2s2 0.895 2 2v19.172l6.586-6.586c0.39-0.39 0.902-0.586 1.414-0.586s1.024 0.195 1.414 0.586c0.781 0.781 0.781 2.047 0 2.828z"></path>
</symbol>
</defs>
</svg>
